# Blender v2.83.0 OBJ File: 'Drill.blend'
# www.blender.org
o Cabin_Cube
v -1.244697 3.024619 -2.051567
v -1.244697 0.718609 -2.051567
v 1.244697 3.024619 -2.051567
v 1.244697 0.718609 -2.051567
v -1.244697 1.682256 0.556059
v -1.244697 0.718609 0.556059
v 1.244697 1.682256 0.556059
v 1.244697 0.718609 0.556059
v -1.244697 3.024619 -2.371176
v -1.244697 0.718609 -2.371176
v 1.244697 3.024619 -2.371176
v 1.244697 0.718609 -2.371176
v -0.414899 0.718609 0.556059
v 0.414899 0.718609 0.556059
v -0.414899 3.024619 -2.051567
v 0.414899 3.024619 -2.051567
v 0.414899 1.682256 0.556059
v -0.414899 1.682256 0.556059
v 0.414899 0.718609 -2.051567
v -0.414899 0.718609 -2.051567
v -0.414899 3.024619 -2.371176
v 0.414899 3.024619 -2.371176
v 0.414899 0.718609 -2.371176
v -0.414899 0.718609 -2.371176
v -0.414899 0.211085 0.556059
v 0.414899 0.211085 0.556059
v 0.414899 0.211085 -2.051567
v -0.414899 0.211085 -2.051567
v 0.414899 0.211085 -2.371176
v -0.414899 0.211085 -2.371176
vt 0.441764 0.832831
vt 0.317310 0.874316
vt 0.317310 0.832831
vt 0.192856 0.874316
vt 0.317310 0.998770
vt 0.192856 0.998770
vt 0.317310 0.583923
vt 0.192856 0.625408
vt 0.192856 0.583923
vt 0.192856 0.832831
vt 0.068402 0.874316
vt 0.068402 0.832831
vt 0.317310 0.832831
vt 0.317310 0.625408
vt 0.192856 0.749862
vt 0.192856 0.874316
vt 0.192856 0.832831
vt 0.317310 0.874316
vt 0.317310 0.749862
vt 0.192856 0.749862
vt 0.192856 0.791346
vt 0.192856 0.791346
vt 0.192856 0.542439
vt 0.192856 0.542439
vt 0.317310 0.749862
vt 0.317310 0.791346
vt 0.317310 0.791346
vt 0.068402 0.791346
vt 0.068402 0.749862
vt 0.068402 0.791346
vt 0.317310 0.500954
vt 0.192856 0.500954
vt 0.317310 0.542439
vt 0.441764 0.749862
vt 0.441764 0.791346
vt 0.192856 0.791346
vt 0.192856 0.832831
vt 0.192856 0.832831
vt 0.068402 0.832831
vt 0.192856 0.791346
vt 0.441764 0.874316
vt 0.192856 0.583923
vn 0.0000 0.8891 0.4577
vn 1.0000 0.0000 0.0000
vn 0.0000 0.0000 1.0000
vn 0.0000 -1.0000 0.0000
vn 0.0000 1.0000 0.0000
vn -1.0000 0.0000 0.0000
vn 0.0000 0.0000 -1.0000
s off
f 17/1/1 3/2/1 16/3/1
f 4/4/2 7/5/2 8/6/2
f 18/7/3 6/8/3 13/9/3
f 19/10/4 8/11/4 14/12/4
f 3/2/5 22/13/5 16/3/5
f 5/14/6 2/15/6 6/8/6
f 22/13/7 12/16/7 23/17/7
f 4/4/2 11/18/2 3/2/2
f 1/19/6 10/20/6 2/15/6
f 2/15/4 24/21/4 20/22/4
f 19/10/4 12/16/4 4/4/4
f 13/9/3 26/23/3 14/24/3
f 9/25/7 24/21/7 10/20/7
f 21/26/7 23/17/7 24/21/7
f 15/27/5 9/25/5 1/19/5
f 16/3/5 21/26/5 15/27/5
f 2/15/4 13/28/4 6/29/4
f 20/22/6 25/30/6 13/28/6
f 7/31/3 14/24/3 8/32/3
f 17/33/3 13/9/3 14/24/3
f 5/34/1 15/27/1 1/19/1
f 18/35/1 16/3/1 15/27/1
f 28/36/4 29/37/4 27/38/4
f 28/36/4 26/39/4 25/30/4
f 19/10/2 29/37/2 23/17/2
f 14/12/2 27/38/2 19/10/2
f 24/21/6 28/36/6 20/22/6
f 23/17/7 30/40/7 24/21/7
f 17/1/1 7/41/1 3/2/1
f 4/4/2 3/2/2 7/5/2
f 18/7/3 5/14/3 6/8/3
f 19/10/4 4/4/4 8/11/4
f 3/2/5 11/18/5 22/13/5
f 5/14/6 1/19/6 2/15/6
f 22/13/7 11/18/7 12/16/7
f 4/4/2 12/16/2 11/18/2
f 1/19/6 9/25/6 10/20/6
f 2/15/4 10/20/4 24/21/4
f 19/10/4 23/17/4 12/16/4
f 13/9/3 25/42/3 26/23/3
f 9/25/7 21/26/7 24/21/7
f 21/26/7 22/13/7 23/17/7
f 15/27/5 21/26/5 9/25/5
f 16/3/5 22/13/5 21/26/5
f 2/15/4 20/22/4 13/28/4
f 20/22/6 28/36/6 25/30/6
f 7/31/3 17/33/3 14/24/3
f 17/33/3 18/7/3 13/9/3
f 5/34/1 18/35/1 15/27/1
f 18/35/1 17/1/1 16/3/1
f 28/36/4 30/40/4 29/37/4
f 28/36/4 27/38/4 26/39/4
f 19/10/2 27/38/2 29/37/2
f 14/12/2 26/39/2 27/38/2
f 24/21/6 30/40/6 28/36/6
f 23/17/7 29/37/7 30/40/7
