# Blender v2.83.0 OBJ File: 'Drill.blend'
# www.blender.org
o Drill_Cube.003
v -1.419045 1.616347 0.773977
v -1.391778 1.893189 0.773977
v 0.000000 1.616347 3.612067
v -1.419045 1.616347 0.555412
v -1.391778 1.339507 0.773977
v -1.391778 1.339507 0.555412
v -1.311027 1.073304 0.773977
v -1.311027 1.073304 0.555412
v 0.000000 1.616347 0.555412
v -1.179893 0.827970 0.555412
v -1.179893 0.827970 0.773977
v -1.003417 0.612932 0.773977
v -1.003417 0.612932 0.555412
v -0.788380 0.436455 0.773977
v -0.788380 0.436455 0.555412
v -0.543046 0.305321 0.555412
v -0.543046 0.305321 0.773977
v -0.276843 0.224569 0.555412
v -0.276843 0.224569 0.773977
v -0.000001 0.197302 0.555412
v -0.000001 0.197302 0.773977
v 0.276841 0.224568 0.555412
v 0.276841 0.224568 0.773977
v 0.543044 0.305320 0.555412
v 0.543044 0.305320 0.773977
v 0.788378 0.436454 0.555412
v 0.788378 0.436454 0.773977
v 1.003416 0.612930 0.555412
v 1.003416 0.612930 0.773977
v 1.179892 0.827967 0.555412
v 1.179892 0.827967 0.773977
v 1.311026 1.073301 0.555412
v 1.311026 1.073301 0.773977
v 1.391778 1.339505 0.555412
v 1.391778 1.339505 0.773977
v 1.419045 1.616347 0.555412
v 1.419045 1.616347 0.773977
v 1.391778 1.893189 0.555412
v 1.391778 1.893189 0.773977
v 1.311027 2.159392 0.555412
v 1.311027 2.159392 0.773977
v 1.179893 2.404726 0.555412
v 1.179893 2.404726 0.773977
v 1.003416 2.619763 0.555411
v 1.003416 2.619763 0.773976
v 0.788379 2.796240 0.773976
v 0.788379 2.796240 0.555411
v 0.543045 2.927374 0.555411
v 0.543045 2.927374 0.773976
v 0.276842 3.008126 0.555411
v 0.276842 3.008126 0.773976
v 0.000000 3.035392 0.555411
v 0.000000 3.035392 0.773976
v -0.276842 3.008126 0.555411
v -0.276842 3.008126 0.773976
v -0.543045 2.927374 0.555411
v -0.543045 2.927374 0.773976
v -0.788379 2.796240 0.555411
v -0.788379 2.796240 0.773976
v -1.003416 2.619763 0.555411
v -1.003416 2.619763 0.773976
v -1.179892 2.404726 0.555412
v -1.179892 2.404726 0.773977
v -1.311026 2.159392 0.555412
v -1.311026 2.159392 0.773977
v -1.391778 1.893189 0.555412
vt 0.446186 0.346113
vt 0.460741 0.367511
vt 0.449933 0.368507
vt 0.124491 0.242598
vt 0.124491 0.122382
vt 0.147754 0.240288
vt 0.101228 0.240288
vt 0.450372 0.391060
vt 0.460741 0.391831
vt 0.457263 0.415593
vt 0.078859 0.233447
vt 0.446749 0.412997
vt 0.440098 0.433569
vt 0.372914 0.122382
vt 0.327282 0.233447
vt 0.349651 0.240288
vt 0.306666 0.222338
vt 0.449689 0.437843
vt 0.430701 0.451667
vt 0.040174 0.207388
vt 0.058243 0.222338
vt 0.439151 0.457271
vt 0.426194 0.474038
vt 0.025344 0.189170
vt 0.418715 0.466850
vt 0.410438 0.487445
vt 0.273767 0.189170
vt 0.288597 0.207388
vt 0.262748 0.168387
vt 0.404605 0.478720
vt 0.392482 0.496631
vt 0.255962 0.145835
vt 0.388812 0.486724
vt 0.373122 0.501095
vt 0.253671 0.122382
vt 0.371960 0.490547
vt 0.353202 0.500554
vt 0.255962 0.098929
vt 0.354656 0.489994
vt 0.333619 0.495034
vt 0.262748 0.076377
vt 0.337507 0.485062
vt 0.315175 0.484899
vt 0.273767 0.055593
vt 0.321116 0.475991
vt 0.298605 0.470624
vt 0.288596 0.037376
vt 0.306185 0.463104
vt 0.284573 0.452775
vt 0.306666 0.022425
vt 0.293381 0.446810
vt 0.273554 0.432134
vt 0.327282 0.011316
vt 0.283208 0.427789
vt 0.265889 0.409503
vt 0.349651 0.004475
vt 0.276082 0.406787
vt 0.261769 0.385714
vt 0.372914 0.002165
vt 0.272240 0.384639
vt 0.261356 0.361561
vt 0.396177 0.004475
vt 0.271881 0.362160
vt 0.264687 0.337851
vt 0.418546 0.011316
vt 0.275047 0.340182
vt 0.271736 0.315309
vt 0.439162 0.022425
vt 0.290880 0.301157
vt 0.281706 0.319501
vt 0.457232 0.037376
vt 0.282352 0.295575
vt 0.295240 0.278817
vt 0.302692 0.285981
vt 0.223638 0.055593
vt 0.208809 0.037376
vt 0.190739 0.022425
vt 0.311007 0.265515
vt 0.472061 0.055593
vt 0.483080 0.076377
vt 0.316777 0.274253
vt 0.328991 0.256456
vt 0.489866 0.098929
vt 0.332595 0.266391
vt 0.348397 0.252088
vt 0.492157 0.122382
vt 0.349528 0.262677
vt 0.368380 0.252616
vt 0.489866 0.145835
vt 0.366958 0.263232
vt 0.388077 0.258017
vt 0.483080 0.168387
vt 0.384255 0.268050
vt 0.406646 0.268045
vt 0.472061 0.189170
vt 0.400754 0.277010
vt 0.423323 0.282260
vt 0.457232 0.207388
vt 0.415774 0.289834
vt 0.437467 0.300050
vt 0.439162 0.222338
vt 0.428679 0.306074
vt 0.448631 0.320654
vt 0.418546 0.233447
vt 0.438966 0.325067
vt 0.456480 0.343349
vt 0.396177 0.240288
vt 0.372914 0.242598
vt 0.170123 0.233447
vt 0.190739 0.222338
vt 0.208809 0.207388
vt 0.223638 0.189170
vt 0.234657 0.168387
vt 0.241443 0.145835
vt 0.243734 0.122382
vt 0.241443 0.098929
vt 0.234657 0.076377
vt 0.170123 0.011316
vt 0.147754 0.004475
vt 0.124491 0.002165
vt 0.101228 0.004475
vt 0.078859 0.011316
vt 0.058243 0.022425
vt 0.040173 0.037376
vt 0.025344 0.055593
vt 0.014325 0.076377
vt 0.007539 0.098929
vt 0.005248 0.122382
vt 0.007539 0.145835
vt 0.014325 0.168387
vn -0.9952 0.0980 0.0000
vn -0.8910 0.0878 0.4455
vn -0.8910 -0.0878 0.4455
vn -0.9952 -0.0980 0.0000
vn -0.9569 -0.2903 0.0000
vn -0.8567 -0.2599 0.4455
vn -0.8819 -0.4714 0.0000
vn 0.0000 0.0000 -1.0000
vn -0.7730 -0.6344 0.0000
vn -0.6921 -0.5680 0.4455
vn -0.7896 -0.4220 0.4455
vn -0.6344 -0.7730 0.0000
vn -0.5680 -0.6921 0.4455
vn -0.4714 -0.8819 0.0000
vn -0.2903 -0.9569 0.0000
vn -0.0980 -0.9952 0.0000
vn 0.0980 -0.9952 0.0000
vn 0.2903 -0.9569 0.0000
vn 0.4714 -0.8819 0.0000
vn 0.6344 -0.7730 0.0000
vn 0.7730 -0.6344 0.0000
vn 0.8819 -0.4714 0.0000
vn 0.9569 -0.2903 0.0000
vn 0.9952 -0.0980 0.0000
vn 0.9952 0.0980 0.0000
vn 0.9569 0.2903 0.0000
vn 0.8819 0.4714 0.0000
vn 0.7730 0.6344 0.0000
vn 0.6344 0.7730 0.0000
vn 0.5680 0.6921 0.4455
vn 0.6921 0.5680 0.4455
vn 0.4714 0.8819 0.0000
vn 0.2903 0.9569 0.0000
vn 0.0980 0.9952 0.0000
vn -0.0980 0.9952 0.0000
vn -0.2903 0.9569 0.0000
vn -0.4714 0.8819 0.0000
vn -0.6344 0.7730 0.0000
vn -0.7730 0.6344 0.0000
vn -0.8819 0.4714 0.0000
vn -0.9569 0.2903 0.0000
vn -0.8567 0.2599 0.4455
vn -0.7896 0.4220 0.4455
vn -0.6921 0.5680 0.4455
vn -0.5680 0.6921 0.4455
vn -0.4220 0.7896 0.4455
vn -0.2599 0.8567 0.4455
vn -0.0878 0.8910 0.4455
vn 0.0878 0.8910 0.4455
vn 0.2599 0.8567 0.4455
vn 0.4220 0.7896 0.4455
vn 0.7896 0.4220 0.4455
vn 0.8567 0.2599 0.4455
vn 0.8910 0.0878 0.4455
vn 0.8910 -0.0878 0.4455
vn 0.8567 -0.2599 0.4455
vn 0.7896 -0.4220 0.4455
vn 0.6921 -0.5680 0.4455
vn 0.5680 -0.6921 0.4455
vn 0.4220 -0.7896 0.4455
vn 0.2599 -0.8567 0.4455
vn 0.0878 -0.8910 0.4455
vn -0.0878 -0.8910 0.4455
vn -0.2599 -0.8567 0.4455
vn -0.4220 -0.7896 0.4455
s off
f 2/1/1 4/2/1 1/3/1
f 1/4/2 3/5/2 2/6/2
f 5/7/3 3/5/3 1/4/3
f 5/8/4 1/3/4 4/2/4
f 5/8/5 6/9/5 8/10/5
f 5/8/4 4/2/4 6/9/4
f 7/11/6 3/5/6 5/7/6
f 5/8/5 8/10/5 7/12/5
f 11/13/7 7/12/7 8/10/7
f 9/14/8 8/15/8 6/16/8
f 9/14/8 10/17/8 8/15/8
f 11/13/7 8/10/7 10/18/7
f 12/19/9 11/13/9 10/18/9
f 12/20/10 3/5/10 11/21/10
f 11/21/11 3/5/11 7/11/11
f 12/19/12 13/22/12 15/23/12
f 12/19/9 10/18/9 13/22/9
f 14/24/13 3/5/13 12/20/13
f 12/19/12 15/23/12 14/25/12
f 14/25/14 15/23/14 16/26/14
f 9/14/8 15/27/8 13/28/8
f 9/14/8 16/29/8 15/27/8
f 17/30/15 16/26/15 18/31/15
f 14/25/14 16/26/14 17/30/14
f 9/14/8 18/32/8 16/29/8
f 19/33/16 18/31/16 20/34/16
f 17/30/15 18/31/15 19/33/15
f 9/14/8 20/35/8 18/32/8
f 21/36/17 20/34/17 22/37/17
f 19/33/16 20/34/16 21/36/16
f 9/14/8 22/38/8 20/35/8
f 23/39/18 22/37/18 24/40/18
f 21/36/17 22/37/17 23/39/17
f 9/14/8 24/41/8 22/38/8
f 25/42/19 24/40/19 26/43/19
f 23/39/18 24/40/18 25/42/18
f 9/14/8 26/44/8 24/41/8
f 27/45/20 26/43/20 28/46/20
f 25/42/19 26/43/19 27/45/19
f 9/14/8 28/47/8 26/44/8
f 29/48/21 28/46/21 30/49/21
f 27/45/20 28/46/20 29/48/20
f 9/14/8 30/50/8 28/47/8
f 31/51/22 30/49/22 32/52/22
f 29/48/21 30/49/21 31/51/21
f 9/14/8 32/53/8 30/50/8
f 33/54/23 32/52/23 34/55/23
f 31/51/22 32/52/22 33/54/22
f 9/14/8 34/56/8 32/53/8
f 35/57/24 34/55/24 36/58/24
f 33/54/23 34/55/23 35/57/23
f 9/14/8 36/59/8 34/56/8
f 37/60/25 36/58/25 38/61/25
f 35/57/24 36/58/24 37/60/24
f 9/14/8 38/62/8 36/59/8
f 39/63/26 38/61/26 40/64/26
f 37/60/25 38/61/25 39/63/25
f 9/14/8 40/65/8 38/62/8
f 41/66/27 40/64/27 42/67/27
f 39/63/26 40/64/26 41/66/26
f 9/14/8 42/68/8 40/65/8
f 45/69/28 43/70/28 42/67/28
f 41/66/27 42/67/27 43/70/27
f 9/14/8 44/71/8 42/68/8
f 45/69/28 42/67/28 44/72/28
f 45/69/29 47/73/29 46/74/29
f 46/75/30 3/5/30 45/76/30
f 45/76/31 3/5/31 43/77/31
f 45/69/29 44/72/29 47/73/29
f 46/74/32 47/73/32 48/78/32
f 9/14/8 47/79/8 44/71/8
f 9/14/8 48/80/8 47/79/8
f 49/81/33 48/78/33 50/82/33
f 46/74/32 48/78/32 49/81/32
f 9/14/8 50/83/8 48/80/8
f 51/84/34 50/82/34 52/85/34
f 49/81/33 50/82/33 51/84/33
f 9/14/8 52/86/8 50/83/8
f 53/87/35 52/85/35 54/88/35
f 51/84/34 52/85/34 53/87/34
f 9/14/8 54/89/8 52/86/8
f 55/90/36 54/88/36 56/91/36
f 53/87/35 54/88/35 55/90/35
f 9/14/8 56/92/8 54/89/8
f 57/93/37 56/91/37 58/94/37
f 55/90/36 56/91/36 57/93/36
f 9/14/8 58/95/8 56/92/8
f 59/96/38 58/94/38 60/97/38
f 57/93/37 58/94/37 59/96/37
f 9/14/8 60/98/8 58/95/8
f 61/99/39 60/97/39 62/100/39
f 59/96/38 60/97/38 61/99/38
f 9/14/8 62/101/8 60/98/8
f 63/102/40 62/100/40 64/103/40
f 61/99/39 62/100/39 63/102/39
f 9/14/8 64/104/8 62/101/8
f 65/105/41 64/103/41 66/106/41
f 63/102/40 64/103/40 65/105/40
f 9/14/8 66/107/8 64/104/8
f 2/1/1 66/106/1 4/2/1
f 65/105/41 66/106/41 2/1/41
f 9/14/8 4/108/8 66/107/8
f 2/6/42 3/5/42 65/109/42
f 65/109/43 3/5/43 63/110/43
f 63/110/44 3/5/44 61/111/44
f 61/111/45 3/5/45 59/112/45
f 59/112/46 3/5/46 57/113/46
f 57/113/47 3/5/47 55/114/47
f 55/114/48 3/5/48 53/115/48
f 53/115/49 3/5/49 51/116/49
f 51/116/50 3/5/50 49/117/50
f 49/117/51 3/5/51 46/75/51
f 43/77/52 3/5/52 41/118/52
f 41/118/53 3/5/53 39/119/53
f 39/119/54 3/5/54 37/120/54
f 37/120/55 3/5/55 35/121/55
f 35/121/56 3/5/56 33/122/56
f 33/122/57 3/5/57 31/123/57
f 31/123/58 3/5/58 29/124/58
f 29/124/59 3/5/59 27/125/59
f 27/125/60 3/5/60 25/126/60
f 25/126/61 3/5/61 23/127/61
f 23/127/62 3/5/62 21/128/62
f 21/128/63 3/5/63 19/129/63
f 19/129/64 3/5/64 17/130/64
f 17/130/65 3/5/65 14/24/65
f 9/14/8 13/28/8 10/17/8
f 9/14/8 6/16/8 4/108/8
